<svg version="1.0" xmlns="http://www.w3.org/2000/svg" xmlns:xlink="http://www.w3.org/1999/xlink" x="0px" y="0px"
	 viewBox="0 0 235 204.7" enable-background="new 0 0 235 204.7" xml:space="preserve">
<g id="background_1">
</g>
<g id="background_2">
</g>
<g id="background_3">
</g>
<g id="background_4">
</g>
<g id="background_5">
</g>
<g id="background_6">
</g>
<g id="background_7">
</g>
<g id="Intro_Message">
</g>
<g id="Next_Game">
</g>
<g id="Navigation_Bar">
</g>
<g id="Sporsors-Social">
</g>
<g id="Logo_2" display="none">
</g>
<g id="Logo_1">
	<g>
		
			<circle fill="#BE1E2D" stroke="#FFFFFF" stroke-width="3.1426" stroke-linecap="round" stroke-miterlimit="10" cx="117.5" cy="102.4" r="92"/>
		<g>
			<circle cx="117.5" cy="102.4" r="87.6"/>
		</g>
		<g>
			<path fill="#FFFFFF" d="M72.3,37.5l5-3.2l14.8,8l-4.2,2.7l-2.6-1.4l-7.7,5l0.3,2.9l-4.3,2.7L72.3,37.5z M77.3,45l4.9-3.1
				l-5.5-3.1L77.3,45z"/>
			<path fill="#FFFFFF" d="M94,26.4l13.4-2.5c3.4-0.6,4.7,0.9,5.2,3.5l0.2,0.9c0.4,1.9,0.1,3.2-1.8,4l0,0c1.4,0,2.6,0.4,3,2.7
				l0.5,2.5l-4.4,0.8l-0.3-1.7c-0.3-1.5-0.8-1.9-2.2-1.7l-7,1.3l0.7,3.8l-4.4,0.8L94,26.4z M99.7,32.7l7.3-1.4
				c1.2-0.2,1.6-0.8,1.4-1.8l-0.1-0.5c-0.2-1.3-0.9-1.4-2.3-1.1l-6.9,1.3L99.7,32.7z"/>
			<path fill="#FFFFFF" d="M122.1,28.1c0.8-4.2,3.4-4.8,7.4-4l5.2,1c6.3,1.2,6.9,2.7,6,6.8l-4.4-0.9l0.1-0.4c0.2-1-0.5-1.5-1.8-1.7
				l-4.8-0.9c-2.3-0.5-3,0.6-3.3,2.4l-0.3,1.6c-0.4,2.1-0.1,3,2,3.4l4.7,0.9c2,0.4,2.6,0.3,3-1.5l4.4,0.9l-0.3,1.4
				c-0.5,2.4-1.7,4.2-6.2,3.3l-7.2-1.4c-4-0.8-6.2-2.2-5.4-6.5L122.1,28.1z"/>
			<path fill="#FFFFFF" d="M152.7,31l3.8,2.5l-2.9,4.4l8,5.2l2.9-4.4l3.8,2.5l-8,12.4l-3.8-2.5l3-4.7l-8-5.2l-3,4.7l-3.8-2.5
				L152.7,31z"/>
		</g>
		<g>
			<path fill="#FFFFFF" d="M60.9,137.6l2.9,3.5l-4,3.4l6.1,7.3l4-3.4l2.9,3.5l-11.3,9.5l-2.9-3.5l4.3-3.6l-6.1-7.3l-4.3,3.6
				l-2.9-3.5L60.9,137.6z"/>
			<path fill="#FFFFFF" d="M74.4,159.9c2.1-3.8,4.7-3.5,8.3-1.5l6.4,3.5c3.6,2,5.2,4,3.1,7.8l-2.1,3.9c-2.1,3.8-4.7,3.5-8.3,1.5
				l-6.4-3.5c-3.6-2-5.2-4-3.1-7.8L74.4,159.9z M77,164.8c-1,1.9-1,2.8,0.8,3.8l5.1,2.8c1.9,1,2.7,0.5,3.7-1.3l0.8-1.4
				c0.9-1.6,1-2.8-1.1-4l-4.6-2.6c-2.1-1.1-3-0.4-3.9,1.2L77,164.8z"/>
			<path fill="#FFFFFF" d="M98.8,171.7c0.5-4.3,3.1-5,7.1-4.5l5.3,0.7c6.4,0.8,7,2.3,6.5,6.4l-4.5-0.6l0.1-0.4
				c0.1-1.1-0.6-1.5-1.9-1.6l-4.9-0.6c-2.4-0.3-3,0.8-3.2,2.6l-0.2,1.6c-0.3,2.1,0.1,3,2.2,3.3l4.8,0.6c2,0.3,2.7,0.1,2.9-1.7
				l4.5,0.6l-0.2,1.4c-0.3,2.5-1.5,4.3-6,3.7l-7.2-0.9c-4-0.5-6.3-1.8-5.8-6.1L98.8,171.7z"/>
			<path fill="#FFFFFF" d="M123.6,168.7l4.4-1l1.2,5.3l2.1-0.5l4.3-6.6l6-1.4l-6.2,8.8l10.4,5.3l-6.2,1.4l-7.6-4.1l-1.9,0.4l1.3,5.5
				l-4.4,1L123.6,168.7z"/>
			<path fill="#FFFFFF" d="M145.7,162.6l13.7-8.6l1.8,2.9l-9.8,6.2l1.3,2l9.3-5.9l1.6,2.6l-9.3,5.9l1.3,2l10.1-6.3l1.9,3l-13.9,8.7
				L145.7,162.6z"/>
			<path fill="#FFFFFF" d="M174.9,151.6l-12.6,0.3l3.4-4.2l7.8-0.1L172,140l3.4-4.2l2.3,12.4l4,3.2l-2.8,3.5L174.9,151.6z"/>
		</g>
		<rect x="11.6" y="84" stroke="#FFFFFF" stroke-width="2.9577" stroke-miterlimit="10" width="211.8" height="36.8"/>
		<circle fill="#FFFFFF" cx="117.5" cy="102.4" r="58.4"/>
		<circle fill="#BE1E2D" cx="117.5" cy="102.4" r="54.4"/>
		<g>
			<g>
				<path fill="#FFFFFF" stroke="#FFFFFF" stroke-width="0.5838" stroke-miterlimit="10" d="M25.7,101.6h4.1v0.6h-4.1
					c0,0.4,0,2.4,0.1,2.7c0.2,0.6,1.1,0.8,1.7,0.8h2.3v0.6h-2.3v0c-1.1,0-2.4-0.5-2.4-1.7v-7.2c1.6,0,3.1,0,4.7,0v0.6h-4.1V101.6z"
					/>
				<path fill="#FFFFFF" stroke="#FFFFFF" stroke-width="0.5838" stroke-miterlimit="10" d="M37.2,99c0-1.3-2.4-1.3-3.2-0.5
					c-0.5,0.5-0.6,1.6-0.1,2.2c0.4,0.4,1,0.6,1.7,0.8c1.5,0.4,2.7,1,2.7,2.7c0,0.7-0.3,1.3-0.8,1.7c-0.8,0.7-2.2,0.7-3.2,0.4
					c-0.7-0.3-1.3-0.8-1.3-1.6l0.6,0c0,0.5,0.5,1,0.9,1.1c0.8,0.2,1.8,0.2,2.5-0.3c0.4-0.3,0.6-0.7,0.6-1.2c0-1.4-1.2-1.9-2.2-2.2
					c-0.8-0.2-1.5-0.4-1.9-0.9c-0.8-0.8-0.6-2.4,0.1-3.1c1.1-1.1,4.3-0.8,4.3,1L37.2,99z"/>
				<path fill="#FFFFFF" stroke="#FFFFFF" stroke-width="0.5838" stroke-miterlimit="10" d="M41.1,97.5h5.5v0.6h-2.4l0,8.3h-0.6
					l0-8.3h-2.4V97.5z"/>
				<path fill="#FFFFFF" stroke="#FFFFFF" stroke-width="0.5838" stroke-miterlimit="10" d="M50.1,105.5h0.8v0.9h-0.8V105.5z"/>
			</g>
		</g>
		<g>
			<path fill="#FFFFFF" stroke="#FFFFFF" stroke-width="0.5838" stroke-miterlimit="10" d="M185.7,105.3c0,0.4,0.1,0.4,0.5,0.4h4.1
				v0.6h-4.1c-0.8,0-1.1-0.2-1.1-1v-0.6c0-2.1,2.4-2.6,3.8-3.5c0.6-0.3,0.9-0.9,0.8-1.6c0-0.5-0.2-0.9-0.6-1.2
				c-0.7-0.6-1.7-0.6-2.5-0.3c-0.5,0.1-0.9,0.6-0.9,1.1h-0.6c0-0.8,0.5-1.4,1.3-1.6h0c1-0.3,2.4-0.3,3.2,0.4c0.5,0.4,0.8,1,0.8,1.7
				c0,0.9-0.3,1.6-1.2,2.1c-1.4,0.8-3.5,1.2-3.5,3V105.3z"/>
			<path fill="#FFFFFF" stroke="#FFFFFF" stroke-width="0.5838" stroke-miterlimit="10" d="M193.7,99.1c0-2.3,5.3-2.3,5.3,0v5.6
				c0,2.3-5.3,2.3-5.3,0V99.1z M194.5,98.6c-0.1,0.1-0.2,0.3-0.2,0.5v5.6c0,0.2,0,0.3,0,0.3c0.3,0.8,2.2,1,3.3,0.6L194.5,98.6z
				 M198.4,99.1c0-1.1-2.2-1.4-3.4-0.9l3.2,7c0.1-0.2,0.2-0.3,0.2-0.6L198.4,99.1z"/>
			<path fill="#FFFFFF" stroke="#FFFFFF" stroke-width="0.5838" stroke-miterlimit="10" d="M204.3,97.5v8.9h-0.6v-8.2h-1.3v-0.7
				H204.3z"/>
			<path fill="#FFFFFF" stroke="#FFFFFF" stroke-width="0.5838" stroke-miterlimit="10" d="M212.7,100.5c0,0.7-0.4,1.1-0.9,1.4
				c0.5,0.3,0.9,0.7,0.9,1.4c0,0.5,0,0.9,0,1.3c0,1.2-1.3,1.7-2.3,1.7h-2.6v-0.6h2.6v0l0.1,0c0.7,0,1.7-0.3,1.7-1.1
				c0-0.4,0-0.9,0-1.3c0-0.8-1-1.1-1.7-1.1h-0.1h-2.6v-0.6h2.6h0.1c0.7,0,1.7-0.4,1.7-1.1c0-0.4,0-0.9,0-1.3c0-0.8-1-1.1-1.7-1.1
				h-0.1h-2.6v-0.6l2.6,0c1,0,2.3,0.5,2.3,1.7C212.7,99.7,212.7,100.1,212.7,100.5z"/>
		</g>
		<g>
			<g>
				<path fill="#FFFFFF" stroke="#BE1E2D" stroke-width="0.6696" stroke-miterlimit="10" d="M113.9,131.7v2c0,0.8,1.6,1.4,3.6,1.4
					c2,0,3.6-0.6,3.6-1.4v-2H113.9z"/>
				
					<ellipse fill="#FFFFFF" stroke="#BE1E2D" stroke-width="0.6696" stroke-miterlimit="10" cx="117.5" cy="131.7" rx="3.6" ry="1.4"/>
			</g>
			<path fill="#FFFFFF" d="M117.5,58.4c-21.4,0-41.8,68.9-41.8,68.9l8.3-3.3c1.2-5.8,16.9-63.5,33.5-63.5
				c16.5,0,32.2,57.7,33.5,63.5l8.3,3.3C159.2,127.3,138.9,58.4,117.5,58.4z"/>
			<path fill="#FFFFFF" d="M100.6,129c0,0,7.9-1.9,8.7-2.3c0.8-0.4,1.6-1.1,2.9-3.2l11.7-18.3l1.1,0.7l-14.6,22.8
				c0,0-0.5,0.7-3.5,1.5l-5.8,1.4L100.6,129z"/>
			<path fill="#FFFFFF" d="M134.9,129c0,0-7.9-1.9-8.7-2.3c-0.8-0.4-1.6-1.1-2.9-3.2l-11.7-18.3l-1.1,0.7l14.6,22.8
				c0,0,0.5,0.7,3.5,1.5l5.8,1.4L134.9,129z"/>
			<g>
				<path fill="#D1D3D4" d="M102.7,102.7c9.9,0,19.7,0,29.6,0c-1.6-4.3-3.1-8.6-4.7-12.9c0.8,0,1.7,0,2.5,0
					c4.9,11,9.7,21.4,14.6,32.4l-6.2-2.3c-1.9-5.1-2.7-7.4-4.5-12.6c-11,0-22,0-33,0c-1.9,5.1-2.7,7.4-4.5,12.6l-6.2,2.3
					c4.9-11,9.7-21.4,14.6-32.4c0.8,0,1.7,0,2.5,0C105.8,94.1,104.2,98.4,102.7,102.7z"/>
			</g>
			<g>
				<path fill="#FFFFFF" d="M123.2,107.4l2.7,8l5,1.8l-3.5-9.8C126,107.4,124.6,107.4,123.2,107.4z"/>
				<path fill="#FFFFFF" d="M113.6,102.7L113.6,102.7l4.1-11.2l3.8,10.9l0.1,0.3h0l0,0c1.4,0,2.8,0,4.2,0l-8-22.3l-8.3,22.3
					l-1.7,4.7l-3.6,9.8l4.9-1.8l2.9-8L113.6,102.7z"/>
			</g>
		</g>
	</g>
</g>
<g id="Layer_1">
</g>
<g id="Logo_05_color_xA0_Image">
</g>
</svg>
