<?xml version="1.0" encoding="UTF-8"?>
<svg xmlns="http://www.w3.org/2000/svg" viewBox="0 0 482.68 432.28">
  <defs>
    <style>
      .cls-1 {
        fill: none;
      }

      .cls-1, .cls-2, .cls-3, .cls-4 {
        stroke-width: 0px;
      }

      .cls-2 {
        fill: #253546;
      }

      .cls-3 {
        fill: #e7502f;
      }

      .cls-4 {
        fill: #fff;
      }
    </style>
  </defs>
  <g id="lines">
    <path class="cls-1" d="M241.1,378.21c-89.37,0-162.08-72.71-162.08-162.08S151.73,54.05,241.1,54.05s162.08,72.71,162.08,162.08-72.71,162.08-162.08,162.08Z"/>
    <circle class="cls-1" cx="241.11" cy="216.13" r="144.08"/>
    <line class="cls-1" x1="241.11" y1="216.13" x2="127.71" y2="44.38"/>
    <line class="cls-1" x1="241.11" y1="216.13" x2="200.93" y2="10.05"/>
    <line class="cls-1" x1="241.11" y1="216.13" x2="278.62" y2="14.25"/>
    <line class="cls-1" x1="241.11" y1="216.13" x2="350.21" y2="43.01"/>
  </g>
  <g id="Layer_1" data-name="Layer 1">
    <path class="cls-3" d="M241.11,89.99c69.56,0,126.15,56.59,126.15,126.15s-56.59,126.15-126.15,126.15-126.15-56.59-126.15-126.15,56.59-126.15,126.15-126.15M241.11,81.99c-74.09,0-134.15,60.06-134.15,134.15s60.06,134.15,134.15,134.15,134.15-60.06,134.15-134.15-60.06-134.15-134.15-134.15h0Z"/>
    <g>
      <path class="cls-2" d="M241.11,72.05c62.79,0,116.17,40.17,135.91,96.2h74.9C430.12,71.93,344.02,0,241.11,0S52.09,71.93,30.3,168.25h74.9c19.74-56.03,73.12-96.2,135.91-96.2Z"/>
      <path class="cls-2" d="M241.11,360.24c-62.79,0-116.17-40.17-135.91-96.2H30.3c21.79,96.32,107.9,168.25,210.81,168.25s189.02-71.93,210.81-168.25h-74.9c-19.74,56.03-73.12,96.2-135.91,96.2Z"/>
    </g>
    <g>
      <path class="cls-4" d="M101.61,303.08l7.17,8.55-9.94,8.33,15.11,18.03,9.94-8.33,7.17,8.55-27.89,23.38-7.17-8.55,10.55-8.85-15.11-18.03-10.55,8.85-7.17-8.55,27.89-23.38Z"/>
      <path class="cls-4" d="M134.8,358.03c5.13-9.34,11.58-8.66,20.39-3.82l15.68,8.61c8.81,4.84,12.84,9.92,7.71,19.26l-5.23,9.52c-5.13,9.34-11.58,8.66-20.39,3.82l-15.68-8.61c-8.81-4.84-12.84-9.92-7.71-19.26l5.23-9.52ZM141.28,370.03c-2.54,4.63-2.54,6.92,2.09,9.46l12.51,6.87c4.63,2.54,6.56,1.31,9.1-3.31l1.89-3.44c2.18-3.96,2.54-6.92-2.61-9.75l-11.45-6.29c-5.15-2.83-7.45-.94-9.63,3.02l-1.89,3.44Z"/>
      <path class="cls-4" d="M195.07,387.21c1.35-10.57,7.61-12.3,17.58-11.02l13.01,1.67c15.75,2.02,17.36,5.67,15.95,15.88l-11.07-1.42.13-1c.33-2.59-1.47-3.58-4.76-4.01l-12.07-1.55c-5.83-.75-7.28,1.85-7.86,6.34l-.5,3.89c-.67,5.24.17,7.37,5.41,8.04l11.82,1.51c4.99.64,6.55.33,7.12-4.15l11.07,1.42-.43,3.39c-.78,6.08-3.59,10.59-14.7,9.16l-17.85-2.29c-9.97-1.28-15.58-4.53-14.23-15.1l1.38-10.77Z"/>
      <path class="cls-4" d="M256.13,379.74l10.87-2.51,3.01,13.03,5.09-1.18,10.7-16.19,14.79-3.42-15.19,21.77,25.63,13.17-15.38,3.55-18.82-10-4.8,1.11,3.14,13.61-10.87,2.51-8.19-35.46Z"/>
      <path class="cls-4" d="M310.78,364.6l33.71-21.17,4.49,7.15-24.26,15.24,3.1,4.94,22.98-14.44,4.01,6.38-22.98,14.44,3.1,4.94,24.82-15.59,4.65,7.41-34.26,21.52-19.35-30.82Z"/>
      <path class="cls-4" d="M382.68,337.64l-31.12.76,8.47-10.48,19.28-.19-3.86-18.89,8.47-10.48,5.78,30.59,9.85,7.96-7.01,8.68-9.85-7.96Z"/>
    </g>
    <g>
      <rect class="cls-3" x="77.02" y="224.99" width="5.92" height="6.24"/>
      <polygon class="cls-3" points="49.53 205.64 49.53 200.34 69.9 200.34 69.9 205.64 62.5 205.64 62.42 231.19 56.84 231.19 56.92 205.64 49.53 205.64"/>
      <path class="cls-3" d="M33.25,217.86c-2.36-.58-5.02-1.36-6.79-3.23-2.98-3.23-2.74-9.13.5-12.16,1.64-1.55,4.36-2.47,7.27-2.47,1.69,0,3.31.32,4.68.92,2.73,1.19,4.22,3.31,4.2,5.99l-.02,1.83-5.53-.12v-1.77c.01-.2.03-.64-.87-1.02-.6-.27-1.42-.42-2.27-.42-1.5,0-2.98.44-3.67,1.08-1.03.98-1.19,3.29-.29,4.34.8.96,2.74,1.45,4.17,1.8,4.13,1.05,9.62,3.25,9.57,10.2-.04,2.59-1.17,4.93-3.17,6.62-2.16,1.79-4.95,2.16-6.91,2.16-1.6,0-3.18-.24-4.58-.7-3.24-1.12-5.22-3.69-5.17-6.72l.02-1.8,5.4.1.07,1.68c.04.84.87,1.53,1.64,1.74.91.26,1.79.39,2.61.39,1.36,0,2.49-.37,3.38-1.1.76-.62,1.15-1.43,1.18-2.43.01-1.5-.53-3.67-5.41-4.91"/>
      <path class="cls-3" d="M18.08,205.84H5.54v7.12h12.54v5.57H5.52c-.03,4.44.04,5.64.11,5.92.17.52,1.65,1.16,3.45,1.16h9v5.59l-9.91-.08c-2.58-.16-4.87-1.08-6.32-2.52-1.22-1.2-1.86-2.75-1.86-4.47v-23.83h18.08v5.53Z"/>
    </g>
    <g>
      <path class="cls-3" d="M413.77,225.8v5.45h-14.49c-1.43,0-5.22,0-5.22-4.99v-1.83c0-6.17,5.5-8.76,9.51-10.66,1.13-.53,2.18-1.02,3.09-1.56,1.17-.69,1.75-1.77,1.73-3.21,0-.97-.4-1.78-1.19-2.43-.88-.73-2.03-1.1-3.39-1.1-1.03,0-1.98.21-2.59.4-.77.2-1.57.86-1.59,1.69l-.04,1.76h-5.49v-1.8c0-3,1.96-5.54,5.14-6.64,1.6-.48,3.14-.71,4.66-.71,1.93,0,4.68.36,6.84,2.11,2.05,1.78,3.15,4.06,3.19,6.61,0,3.65-1.47,6.25-4.49,7.98-1.09.63-2.3,1.18-3.47,1.7-3.39,1.53-6.31,2.84-6.37,5.92v1.28h14.17Z"/>
      <polygon class="cls-3" points="456.72 231.26 451.14 231.26 451.14 206.02 447.01 206.02 447.01 200.41 456.72 200.41 456.72 231.26"/>
      <path class="cls-3" d="M482.68,220.08v4.12c0,4.56-4.44,7.01-8.82,7.06h-9.92v-5.58h9.85c1.5,0,3.31-.66,3.31-1.48v-4.12c0-.84-1.85-1.6-3.31-1.6h-9.85v-5.3h9.7c1.56,0,3.47-.75,3.47-1.63v-4.13c0-.82-1.81-1.48-3.31-1.48h-9.85v-5.58l9.9.05c4.39,0,8.83,2.4,8.83,7.01v4.13c0,1.62-.58,3.07-1.68,4.26,1.11,1.18,1.68,2.64,1.68,4.27"/>
      <path class="cls-3" d="M430.55,200.05c-4.82,0-10.01,2.2-10.01,7.02v17.37c0,4.89,5.18,7.11,10.01,7.11s10.01-2.22,10.01-7.11v-17.37c0-4.82-5.19-7.02-10.01-7.02ZM430.54,226.01c-1.33,0-2.61-.24-3.5-.64-.59-.26-.85-.54-.92-1.09v-11.56l6,13.17c-.51.08-1.05.12-1.58.12ZM435,218.87l-6.08-13.34c.51-.07,1.05-.12,1.6-.12,1.59,0,3.05.34,3.92.9.59.38.59.66.59.76l-.03,11.8Z"/>
    </g>
    <path class="cls-3" d="M322.52,179.23h-17.4l-16.39,32.72h-18.64l34.13-68.1.08-.34c1.19-4.97-.22-9.61-3.8-12.66-3.04-2.71-7.84-4.26-14.24-4.62l-.95-.04c-.61-.03-1.19-.03-1.71-.03-6.43,0-12.81,1.19-18,3.36l-.99.44c-1.18.54-2.31,1.13-3.4,1.78-4.78,2.86-8.49,6.69-10.73,11.07l-33.31,65.29h17.43l13.99-27.42h19.87l-39.96,79.79h17.3l16.24-32.43h18.53l-39.91,79.69h56.39l8.12-16.18h-38.9l56.25-112.31ZM256.79,164.59l8.57-16.78c.67-1.32,2.23-2.63,4.3-3.58,2.71-1.26,7.19-2.08,11.4-2.08,3.57,0,5.72.52,6.72.91l-10.98,21.52h-20.01Z"/>
    <g>
      <polygon class="cls-2" points="221.69 214.98 212.41 214.98 189.64 260.46 198.91 260.46 221.69 214.98"/>
      <polygon class="cls-2" points="208.18 260.46 217.45 260.46 240.23 214.98 230.96 214.98 208.18 260.46"/>
      <path class="cls-2" d="M239.71,142.11c2.92-5.72,8.21-10.54,14.88-13.59,4.8-2.21,12.05-3.75,14.63-3.96-7.05,0-18.45,1.44-23.91,3.96-6.67,3.05-11.96,7.87-14.88,13.59l-33.66,65.98h9.27l33.66-65.98Z"/>
      <path class="cls-2" d="M250.68,124.56c-7.05,0-18.45,1.44-23.9,3.96-6.68,3.05-11.97,7.87-14.89,13.59l-33.66,65.98h9.27l33.67-65.98c2.92-5.72,8.21-10.54,14.88-13.59,4.8-2.21,12.05-3.75,14.63-3.96"/>
      <path class="cls-2" d="M168.96,208.09l33.66-65.98c2.92-5.72,8.21-10.54,14.88-13.59,4.8-2.21,12.05-3.75,14.63-3.96-7.05,0-18.44,1.44-23.9,3.96-6.67,3.05-11.97,7.87-14.88,13.59l-33.66,65.98h9.27Z"/>
      <polygon class="cls-2" points="180.37 260.46 203.14 214.98 193.87 214.98 171.09 260.46 180.37 260.46"/>
      <polygon class="cls-2" points="192.44 307.72 212.66 267.35 203.39 267.35 183.17 307.72 192.44 307.72"/>
      <polygon class="cls-2" points="210.99 307.72 231.2 267.35 221.93 267.35 201.71 307.72 210.99 307.72"/>
      <polygon class="cls-2" points="229.53 307.72 249.75 267.35 240.48 267.35 220.25 307.72 229.53 307.72"/>
    </g>
    <path class="cls-4" d="M250.88,29.37c.95-5.24,3-8.22,6.06-9.66,3.06-1.44,7.11-1.35,12.06-.45l6.45,1.16,6.45,1.16c7.82,1.41,12.08,3.05,14.15,5.6s1.94,6.01.98,11.07l-5.49-.99-5.49-.99.09-.49.09-.49c.23-1.29-.09-2.2-.87-2.86s-2.04-1.08-3.67-1.38l-5.99-1.08-5.99-1.08c-2.89-.52-4.74-.15-5.95.9s-1.81,2.8-2.22,5.03l-.35,1.93-.35,1.93c-.47,2.6-.52,4.44.19,5.75s2.2,2.09,4.79,2.56l5.86,1.06,5.86,1.06c2.47.45,4.1.61,5.22.11s1.71-1.67,2.11-3.9l5.49.99,5.49.99-.3,1.68-.3,1.68c-.54,3.02-1.58,5.61-3.85,7.21-2.27,1.59-5.79,2.19-11.3,1.19l-8.85-1.6-8.85-1.6c-4.95-.89-8.78-2.22-11.14-4.64s-3.25-5.92-2.3-11.17l.96-5.34.96-5.34Z"/>
    <path class="cls-4" d="M180.05,26.36l16.51-3.32,16.51-3.32c4.21-.85,7.1-.34,9.09,1.19,1.99,1.52,3.09,4.06,3.73,7.26l.23,1.13.23,1.13c.48,2.39.59,4.34-.02,5.97s-1.94,2.93-4.33,4.03v.05s.02.05.02.05c1.69-.03,3.28.17,4.6,1.12s2.36,2.63,2.95,5.57l.61,3.03.61,3.03-5.47,1.1-5.47,1.1-.43-2.14-.43-2.14c-.38-1.87-.9-3.06-1.75-3.7s-2.03-.72-3.74-.38l-8.6,1.73-8.6,1.73.93,4.63.93,4.63-5.47,1.1-5.47,1.1-3.59-17.84-3.59-17.84ZM194.51,41.7l9.04-1.82,9.04-1.82c1.48-.3,2.43-.8,2.95-1.54s.6-1.74.34-3.02l-.12-.59-.12-.59c-.32-1.58-.9-2.43-1.83-2.81s-2.22-.27-3.95.08l-8.55,1.72-8.55,1.72.87,4.34.87,4.34Z"/>
    <path class="cls-4" d="M126.02,55.12l6.06-4,6.06-4,18.37,9.68,18.37,9.68-5.18,3.42-5.18,3.42-3.22-1.73-3.22-1.73-9.44,6.23-9.44,6.23.41,3.58.41,3.58-5.2,3.43-5.2,3.43-1.8-20.61-1.8-20.61ZM138.37,73.47l5.96-3.93,5.96-3.93-6.79-3.71-6.79-3.71.83,7.64.83,7.64Z"/>
    <path class="cls-4" d="M327.32,36.38l4.72,2.98,4.72,2.98-3.46,5.48-3.46,5.48,9.94,6.28,9.94,6.28,3.46-5.48,3.46-5.48,4.72,2.98,4.72,2.98-9.72,15.38-9.72,15.38-4.72-2.98-4.72-2.98,3.68-5.82,3.68-5.82-9.94-6.28-9.94-6.28-3.68,5.82-3.68,5.82-4.72-2.98-4.72-2.98,9.72-15.38,9.72-15.38Z"/>
  </g>
</svg>