<?xml version="1.0" encoding="UTF-8"?>
<svg xmlns="http://www.w3.org/2000/svg" viewBox="0 0 361.21 366.31">
  <defs>
    <style>
      .cls-1 {
        fill: #e7502f;
      }

      .cls-1, .cls-2 {
        stroke-width: 0px;
      }

      .cls-2 {
        fill: #fff;
      }
    </style>
  </defs>
  <g id="Layer_1" data-name="Layer 1">
    <path class="cls-1" d="M325.64,109.32h-34.8l-32.77,65.45h-37.28l68.26-136.19.16-.69c2.38-9.94-.43-19.21-7.61-25.33-6.09-5.42-15.67-8.53-28.48-9.25l-1.91-.08c-1.23-.05-2.38-.06-3.42-.06-12.85,0-25.62,2.38-35.99,6.72l-1.99.88c-2.37,1.08-4.61,2.26-6.79,3.56-9.57,5.72-16.97,13.39-21.45,22.14l-66.63,130.57h34.85l27.98-54.84h39.73l-79.91,159.58h34.6l32.48-64.86h37.07l-79.82,159.37h112.78l16.23-32.37h-77.8l112.5-224.62ZM194.2,80.05l17.13-33.56c1.34-2.65,4.47-5.26,8.59-7.16,5.43-2.52,14.38-4.15,22.81-4.15,7.15,0,11.44,1.05,13.44,1.83l-21.96,43.05h-40.02Z"/>
    <g>
      <polygon class="cls-1" points="123.98 180.84 105.43 180.84 59.89 271.8 78.43 271.8 123.98 180.84"/>
      <polygon class="cls-1" points="96.96 271.8 115.51 271.8 161.06 180.84 142.52 180.84 96.96 271.8"/>
      <path class="cls-1" d="M160.03,35.1c5.83-11.44,16.42-21.09,29.76-27.18,9.6-4.42,24.11-7.49,29.27-7.92-14.1,0-36.89,2.89-47.81,7.92-13.35,6.09-23.93,15.75-29.76,27.18l-67.33,131.95h18.54L160.03,35.1Z"/>
      <path class="cls-1" d="M181.97,0c-14.1,0-36.89,2.89-47.8,7.92-13.36,6.09-23.94,15.75-29.78,27.18L37.07,167.06h18.54L122.95,35.1c5.83-11.44,16.41-21.09,29.77-27.18,9.6-4.42,24.09-7.49,29.26-7.92"/>
      <path class="cls-1" d="M18.54,167.06L85.86,35.1c5.83-11.44,16.43-21.09,29.77-27.18,9.6-4.42,24.1-7.49,29.26-7.92-14.09,0-36.89,2.89-47.8,7.92-13.35,6.09-23.93,15.75-29.76,27.18L0,167.06h18.54Z"/>
      <polygon class="cls-1" points="41.34 271.8 86.89 180.84 68.34 180.84 22.8 271.8 41.34 271.8"/>
      <polygon class="cls-1" points="65.49 366.31 105.93 285.57 87.39 285.57 46.95 366.31 65.49 366.31"/>
      <polygon class="cls-1" points="102.58 366.31 143.02 285.57 124.47 285.57 84.04 366.31 102.58 366.31"/>
      <polygon class="cls-1" points="139.66 366.31 180.1 285.57 161.56 285.57 121.12 366.31 139.66 366.31"/>
    </g>
  </g>
  <g id="logo_Graphics" data-name="logo &amp;amp; Graphics">
    <g>
      <polygon class="cls-2" points="242.44 342.15 234.6 357.79 237.05 357.79 244.88 342.15 242.44 342.15"/>
      <polygon class="cls-2" points="252.44 342.15 244.6 357.79 247.05 357.79 254.88 342.15 252.44 342.15"/>
      <polygon class="cls-2" points="262.44 342.15 254.6 357.79 257.05 357.79 264.88 342.15 262.44 342.15"/>
      <polygon class="cls-2" points="222.44 342.15 214.6 357.79 217.05 357.79 224.88 342.15 222.44 342.15"/>
      <polygon class="cls-2" points="232.44 342.15 224.6 357.79 227.05 357.79 234.88 342.15 232.44 342.15"/>
    </g>
    <g>
      <path class="cls-1" d="M258.72,297.05l2.34-4.68,14.95-.57-2,4-2.63.08-3.65,7.29,1.55,2.09-2.01,4.02-8.55-12.22ZM265.88,300.56l2.3-4.6-5.57.13,3.27,4.47Z"/>
      <path class="cls-1" d="M265.74,283.02l5.43-10.85c1.39-2.77,3.14-2.82,5.24-1.77l.74.37c1.57.79,2.32,1.61,1.88,3.45l.03.02c.73-.97,1.65-1.63,3.57-.66l1.99,1-1.8,3.59-1.41-.71c-1.23-.62-1.81-.46-2.37.65l-2.83,5.65,3.04,1.52-1.8,3.59-11.72-5.87ZM273.31,282.32l2.98-5.94c.49-.97.28-1.52-.57-1.94l-.39-.2c-1.04-.52-1.49-.1-2.06,1.03l-2.81,5.62,2.85,1.43Z"/>
      <path class="cls-1" d="M278.95,266.92c-3.43-1.72-3.28-4.05-1.66-7.29l2.12-4.23c2.56-5.12,4-5.23,7.3-3.53l-1.8,3.59-.32-.16c-.84-.42-1.39.07-1.93,1.14l-1.96,3.92c-.95,1.89-.24,2.7,1.22,3.43l1.26.63c1.7.85,2.53.82,3.38-.88l1.92-3.84c.81-1.62.89-2.19-.57-2.92l1.8-3.59,1.1.55c1.98.99,3.17,2.48,1.37,6.09l-2.9,5.8c-1.62,3.24-3.4,4.76-6.83,3.04l-3.5-1.75Z"/>
      <path class="cls-1" d="M284.4,245.78l1.8-3.59,4.18,2.09,3.8-7.58-4.18-2.09,1.8-3.59,11.72,5.87-1.8,3.59-4.44-2.22-3.8,7.58,4.44,2.22-1.8,3.59-11.72-5.87Z"/>
      <path class="cls-1" d="M298.64,217.34l1.8-3.59,4.18,2.09,3.8-7.58-4.18-2.09,1.8-3.59,11.72,5.87-1.8,3.59-4.44-2.22-3.8,7.58,4.44,2.22-1.8,3.59-11.72-5.87Z"/>
      <path class="cls-1" d="M312.06,200.83c-3.43-1.72-3.28-4.05-1.66-7.29l2.89-5.77c1.62-3.24,3.4-4.76,6.83-3.04l3.5,1.75c3.43,1.72,3.28,4.05,1.66,7.29l-2.89,5.77c-1.62,3.24-3.4,4.76-6.83,3.04l-3.5-1.75ZM316.29,198.33c1.7.85,2.53.82,3.38-.88l2.3-4.6c.85-1.7.38-2.38-1.32-3.23l-1.26-.63c-1.46-.73-2.53-.82-3.48,1.07l-2.11,4.21c-.95,1.89-.24,2.7,1.22,3.43l1.26.63Z"/>
      <path class="cls-1" d="M321.89,181.2c-3.43-1.72-3.28-4.05-1.66-7.29l2.12-4.23c2.56-5.12,4-5.23,7.3-3.53l-1.8,3.59-.32-.16c-.84-.42-1.39.07-1.93,1.14l-1.96,3.92c-.95,1.89-.24,2.7,1.22,3.43l1.26.63c1.7.85,2.53.82,3.38-.88l1.92-3.84c.81-1.62.89-2.19-.57-2.92l1.8-3.59,1.1.55c1.98.99,3.17,2.48,1.37,6.09l-2.9,5.8c-1.62,3.24-3.4,4.76-6.83,3.04l-3.5-1.75Z"/>
      <path class="cls-1" d="M327.33,160.06l1.8-3.59,4.31,2.16.84-1.68-2.04-6.69,2.45-4.89,2.55,9.22,9.54-4.09-2.55,5.09-7.1,2.93-.79,1.59,4.5,2.26-1.8,3.59-11.72-5.87Z"/>
      <path class="cls-1" d="M336.56,141.64l6.42-12.83,2.72,1.36-4.62,9.23,1.88.94,4.38-8.74,2.43,1.22-4.38,8.74,1.88.94,4.73-9.44,2.82,1.41-6.53,13.04-11.72-5.87Z"/>
      <path class="cls-1" d="M355.33,123.24l-10.9,2.66,2.17-4.34,6.77-1.55-2.81-6.35,2.17-4.34,4.39,10.32,4.08,2.04-1.8,3.59-4.08-2.04Z"/>
    </g>
  </g>
</svg>